<svg xmlns="http://www.w3.org/2000/svg" viewBox="0 0 241.76 314.89"><defs><style>.cls-1{opacity:0.5;}.cls-2{fill:#25e848;}</style></defs><g id="Layer_2" data-name="Layer 2"><g id="Layer_1-2" data-name="Layer 1"><g class="cls-1"><path class="cls-2" d="M144.06,83.35a7.58,7.58,0,0,0-7.55-7.55H72.79a.75.75,0,0,0-.76.75V238a7.58,7.58,0,0,0,7.56,7.56h56.92a7.58,7.58,0,0,0,7.55-7.56Z"/></g><circle class="cls-2" cx="72.03" cy="242.86" r="72.03"/><path class="cls-2" d="M72,40.35V71.28a.76.76,0,0,0,.76.75H234.2a7.58,7.58,0,0,0,7.56-7.56V7.56A7.58,7.58,0,0,0,234.2,0H112.38A40.36,40.36,0,0,0,72,40.35Z"/></g></g></svg>