<?xml version="1.0" encoding="UTF-8"?>
<svg id="Layer_1" data-name="Layer 1" xmlns="http://www.w3.org/2000/svg" viewBox="0 0 512 512">
  <defs>
    <style>
      .cls-1 {
        fill: #e8faff;
      }

      .cls-2 {
        fill: #85d2e7;
      }

      .cls-3 {
        fill: #00687b;
      }

      .cls-4 {
        fill: #009eba;
      }
    </style>
  </defs>
  <path class="cls-1" d="M218.72,15.75c.87-.85,1.3-1.27,1.67-1.63,20-18.84,51.22-18.84,71.22,0,.38,.35,.81,.78,1.67,1.63,.52,.51,.78,.76,1.03,1,12.8,12.22,30.94,17.08,48.13,12.9,.33-.08,.68-.17,1.39-.35,1.17-.3,1.76-.45,2.26-.57,26.74-6.31,53.77,9.3,61.68,35.61,.15,.49,.31,1.08,.64,2.24,.2,.7,.29,1.05,.39,1.38,4.98,16.98,18.26,30.26,35.24,35.24,.33,.1,.68,.19,1.38,.39,1.17,.33,1.75,.49,2.24,.64,26.32,7.91,41.92,34.94,35.61,61.68-.12,.5-.27,1.09-.57,2.26-.18,.7-.27,1.06-.35,1.39-4.18,17.19,.68,35.33,12.9,48.13,.24,.25,.49,.51,1,1.03,.85,.87,1.27,1.3,1.63,1.67,18.84,20,18.84,51.22,0,71.22-.35,.38-.78,.81-1.63,1.67-.51,.52-.76,.78-1,1.03-12.22,12.8-17.08,30.94-12.9,48.13,.08,.33,.17,.68,.35,1.39,.3,1.17,.45,1.76,.57,2.26,6.31,26.74-9.3,53.77-35.61,61.68-.49,.15-1.08,.31-2.24,.64-.7,.2-1.05,.29-1.38,.39-16.98,4.98-30.26,18.26-35.24,35.24-.1,.33-.19,.68-.39,1.38-.32,1.17-.49,1.75-.64,2.24-7.91,26.32-34.94,41.92-61.68,35.61-.5-.12-1.09-.27-2.26-.57-.7-.18-1.06-.27-1.39-.35-17.19-4.18-35.33,.68-48.13,12.9-.25,.24-.51,.49-1.03,1-.87,.85-1.3,1.27-1.67,1.63-20,18.84-51.22,18.84-71.22,0-.38-.35-.81-.78-1.67-1.63-.52-.51-.78-.76-1.03-1-12.8-12.22-30.94-17.08-48.13-12.9-.33,.08-.68,.17-1.39,.35-1.17,.3-1.76,.45-2.26,.57-26.74,6.31-53.77-9.3-61.68-35.61-.15-.49-.31-1.08-.64-2.24-.2-.7-.29-1.05-.39-1.38-4.98-16.98-18.26-30.26-35.24-35.24-.33-.1-.68-.2-1.38-.39-1.17-.32-1.75-.49-2.24-.64-26.32-7.91-41.92-34.94-35.61-61.68,.12-.5,.27-1.09,.57-2.26,.18-.7,.27-1.06,.35-1.39,4.18-17.19-.68-35.33-12.9-48.13-.24-.25-.49-.51-1-1.03-.85-.87-1.27-1.3-1.63-1.67-18.84-20-18.84-51.22,0-71.22,.35-.38,.78-.81,1.63-1.67,.51-.52,.76-.78,1-1.03,12.22-12.8,17.08-30.94,12.9-48.13-.08-.33-.17-.68-.35-1.39-.3-1.17-.45-1.76-.57-2.26-6.31-26.74,9.3-53.77,35.61-61.68,.49-.15,1.08-.31,2.24-.64,.7-.2,1.05-.29,1.38-.39,16.98-4.98,30.26-18.26,35.24-35.24,.1-.33,.19-.68,.39-1.38,.33-1.17,.49-1.75,.64-2.24,7.91-26.32,34.94-41.92,61.68-35.61,.5,.12,1.09,.27,2.26,.57,.7,.18,1.06,.27,1.39,.35,17.19,4.18,35.33-.68,48.13-12.9,.25-.24,.51-.49,1.03-1Z"/>
  <g>
    <rect class="cls-2" x="205.98" y="154.98" width="60.26" height="183.68"/>
    <circle class="cls-4" cx="209.51" cy="338.66" r="56.73"/>
    <path class="cls-3" d="M253.1,69.5h29.5c16.28,0,29.5,13.22,29.5,29.5v94.23c0,16.28-13.22,29.5-29.5,29.5h0c-16.28,0-29.5-13.22-29.5-29.5V69.5h0Z" transform="translate(136.48 428.72) rotate(-90)"/>
  </g>
</svg>