<?xml version="1.0" encoding="UTF-8"?>
<svg id="Layer_1" data-name="Layer 1" xmlns="http://www.w3.org/2000/svg" viewBox="0 0 512 512">
  <rect width="512" height="512" fill="#f0fbf6"/>
  <g>
    <path d="M254.04,140.94v175.43c0,41.8-33.44,76.44-75.24,76.74-42.12,.3-76.35-33.75-76.35-75.8s33.93-75.79,75.8-75.79c7.55,0,14.84,1.1,21.72,3.15,7.89,2.35,15.79-3.7,15.79-11.93v-92.3c0-5.29,2.14-10.07,5.61-13.53,3.52-3.53,8.42-5.68,13.81-5.61,10.54,.15,18.86,9.09,18.86,19.63Z" fill="#006b4f"/>
    <rect x="272.37" y="150.25" width="38.29" height="136.87" rx="19.14" ry="19.14" fill="#00a374"/>
    <rect x="326.65" y="180.16" width="38.29" height="77.04" rx="19.14" ry="19.14" fill="#5ce0ac"/>
    <circle cx="395.41" cy="218.68" r="19.14" fill="#b2f0d8"/>
  </g>
</svg>